<?xml version="1.0" standalone="no"?>
<!DOCTYPE svg PUBLIC "-//W3C//DTD SVG 20010904//EN"
 "http://www.w3.org/TR/2001/REC-SVG-20010904/DTD/svg10.dtd">
<svg version="1.0" xmlns="http://www.w3.org/2000/svg"
 width="103.000000pt" height="103.000000pt" viewBox="0 0 103.000000 103.000000"
 preserveAspectRatio="xMidYMid meet">
<metadata>
Created by potrace 1.11, written by Peter Selinger 2001-2013
</metadata>
<g transform="translate(0.000000,103.000000) scale(0.100000,-0.100000)"
fill="#000000" stroke="none">
<path d="M434 895 c-34 -7 -79 -22 -101 -33 -59 -31 -135 -104 -166 -161 -25
-45 -27 -53 -14 -71 13 -18 14 -18 29 -1 11 13 27 17 62 16 26 -1 49 -5 53 -9
3 -3 5 -33 4 -66 -1 -52 1 -60 17 -60 13 0 26 20 48 73 l29 72 44 -1 c42 -2
61 -14 75 -48 2 -6 11 -2 20 11 19 26 78 47 106 38 11 -4 62 -6 112 -6 51 0
98 -5 104 -10 7 -6 16 -4 24 6 17 20 -2 61 -54 122 -95 110 -244 158 -392 128z"/>
<path d="M422 611 c-5 -3 -23 -45 -40 -93 l-32 -88 26 0 c13 0 27 7 30 15 4 9
19 15 35 15 17 0 32 -6 35 -15 8 -20 54 -20 54 0 0 8 -9 37 -21 63 -11 26 -27
61 -34 78 -12 29 -33 38 -53 25z"/>
<path d="M573 596 c-29 -25 -28 -36 9 -89 13 -17 5 -29 -26 -40 -5 -2 -4 -13
3 -25 11 -21 13 -21 41 -7 41 21 47 56 20 100 l-22 36 21 6 c24 6 26 14 9 31
-17 17 -23 15 -55 -12z"/>
<path d="M670 526 c0 -96 0 -96 25 -96 22 0 25 4 25 35 0 19 4 35 9 35 5 0 18
-16 30 -35 15 -25 27 -35 45 -35 28 0 27 10 -5 64 -17 28 -17 30 7 65 31 46
30 51 -6 51 -23 0 -30 -5 -30 -19 0 -20 -25 -51 -41 -51 -5 0 -9 16 -9 35 0
19 -4 35 -9 35 -5 0 -16 3 -25 6 -14 5 -16 -6 -16 -90z"/>
<path d="M900 601 c-11 -22 -60 -155 -60 -165 0 -13 48 -5 54 9 3 9 18 15 36
15 18 0 33 -6 36 -15 6 -15 54 -22 54 -7 0 5 -15 46 -34 92 -25 63 -39 84 -54
87 -13 2 -25 -5 -32 -16z"/>
<path d="M77 603 c-7 -11 -67 -162 -67 -168 0 -13 51 -3 56 10 7 18 64 17 71
-2 3 -7 18 -13 33 -13 l28 0 -37 88 c-28 66 -42 88 -58 90 -12 2 -23 -1 -26
-5z"/>
<path d="M219 608 c-1 -2 -3 -42 -3 -90 l-2 -86 59 -4 c52 -3 60 0 67 17 7 18
3 20 -35 23 l-43 3 1 67 c2 62 0 67 -21 70 -12 2 -23 2 -23 0z"/>
<path d="M427 405 c-13 -9 -56 -13 -147 -12 -72 0 -132 -2 -135 -4 -2 -3 5
-24 16 -47 33 -65 112 -140 187 -175 62 -30 75 -32 172 -32 100 0 109 2 175
34 90 45 178 136 199 206 5 19 1 20 -57 19 -34 -1 -70 3 -79 7 -10 5 -19 5
-23 0 -6 -10 -81 -8 -92 2 -3 4 -18 0 -33 -8 -15 -8 -29 -12 -32 -10 -2 3 -31
7 -63 9 -31 2 -60 9 -64 14 -4 7 -12 6 -24 -3z"/>
</g>
</svg>
